<svg width="505" height="478" viewBox="0 0 505 478" fill="none" xmlns="http://www.w3.org/2000/svg">
<path d="M73.7485 31.4008C-2.95002 83.0349 -9.02503 163.565 37.2978 212.177C63.3543 239.521 47.17 268.044 37.2978 277.499C1.60653 311.68 -3.7096 381.435 54.0045 432.449C111.719 483.464 163.756 480.303 203.605 436.248C243.453 392.194 261.191 378.519 306.122 432.449C351.053 486.38 423.515 476.504 465.595 422.576C507.674 368.648 499.767 310.918 470.151 277.499C440.535 244.079 448.129 224.777 470.151 205.341C508.88 171.161 511.158 89.8872 440.535 35.958C369.911 -17.9713 306.122 19.8729 283.341 35.958C260.559 52.043 245.371 43.0474 230.183 35.958C214.995 28.8685 150.447 -20.2334 73.7485 31.4008Z" stroke="black" stroke-width="15"/>
</svg>
