<svg width="191" height="181" viewBox="0 0 191 181" fill="none" xmlns="http://www.w3.org/2000/svg">
<path d="M27.8742 11.8639C-1.14264 31.4223 -3.44096 61.9261 14.084 80.3398C23.9418 90.6975 17.8189 101.501 14.084 105.083C0.581203 118.03 -1.43001 144.453 20.4046 163.776C42.2392 183.1 61.9262 181.902 77.0018 165.215C92.0774 148.528 98.7881 143.348 115.787 163.776C132.785 184.204 160.199 180.464 176.119 160.036C192.038 139.609 189.047 117.742 177.842 105.083C166.638 92.4237 169.511 85.1124 177.842 77.7503C192.494 64.8032 193.356 34.0179 166.638 13.5901C139.919 -6.8376 115.787 7.49732 107.168 13.5901C98.5489 19.6829 92.8029 16.2755 87.057 13.5901C81.3111 10.9047 56.891 -7.69446 27.8742 11.8639Z" stroke="black" stroke-width="5"/>
</svg>
